# xmcd
#
# Track frame offsets:
# 150
# 16239
# 29381
# 42647
# 54500
# 70224
# 83916
# 95070
# 107640
# 119653
# 131496
# 141165
# 153533
# 164993
# 174493
# 187602
# 197961
# 210414
# 223425
# 233043
#
# Disc length: 3259 seconds
#
#
# Revision: 0
# Processed by: cddbd v1.5.2PL0 Copyright (c) Steve Scherf et al.
# Submitted via: FreeRIP 2.944 
#
DISCID=2c0cb914
DTITLE=Various Artist - I Love Country - 60 Classic Country Hits - CD 2
DYEAR=1900
DGENRE=Country
TTITLE0=Johnny Cash - A Boy Named Sue
TTITLE1=Freddy Fender - Wasted Days And Wasted Nights
TTITLE2=Kenny Rogers and The First Edition - Ruby, Don't Take Your Love To Town
TTITLE3=Tammy Wynette - Stand By Your Man
TTITLE4=Billie Jo Spears - Blanket On The Ground
TTITLE5=The Kingston Trio - Tom Dooley
TTITLE6=Don Gibson - Oh, Lonesome Me
TTITLE7=Hank Williams - Honky Tonkin'
TTITLE8=Wanda Jackson - Right Or Wrong
TTITLE9=Skeeter Davis - The End Of The World
TTITLE10=Frankie Laine - I Believe
TTITLE11=Bobbie Bare - The Year That Clayton Delaney Died
TTITLE12=Patsy Cline - Walking After Midnight
TTITLE13=Dave Duddley - Six Days On The Road
TTITLE14=Don Williams - Ruby Tuesday
TTITLE15=Freddy Fender - Before The Next Teardrop Falls
TTITLE16=Glen Campbell - By The Time I Get To Phoenix
TTITLE17=Donna Fargo - Daddy
TTITLE18=Sandy Posey - Born A Woman
TTITLE19=Sammi Smith - Help Me Make It Through The Night
EXTD=
EXTT0=
EXTT1=
EXTT2=
EXTT3=
EXTT4=
EXTT5=
EXTT6=
EXTT7=
EXTT8=
EXTT9=
EXTT10=
EXTT11=
EXTT12=
EXTT13=
EXTT14=
EXTT15=
EXTT16=
EXTT17=
EXTT18=
EXTT19=
PLAYORDER=
